<svg viewBox="0 0 1040 1024" version="1.1" xmlns="http://www.w3.org/2000/svg" width="40" height="40">
    <path d="M472.55082 10.911475C459.960656-0.839344 440.655738 0 428.065574 10.911475 352.52459 73.862295 7.554098 362.596721 7.554098 362.596721v506.963935c0 11.75082 10.072131 21.822951 21.822951 21.822951h842.70164c11.75082 0 21.822951-10.072131 21.82295-21.822951V362.596721C882.15082 352.52459 468.354098 6.714754 472.55082 10.911475z" fill="#2767F4"></path>
    <path d="M719.318033 108.27541c29.377049 0 52.878689 23.501639 52.878688 52.878688v277.822951L440.655738 637.062295 129.259016 441.495082V161.154098c0-29.377049 23.501639-52.878689 52.878689-52.878688h537.180328z" fill="#DFECFD"></path>
    <path d="M657.206557 249.285246H228.301639c-6.714754 0-12.590164-5.87541-12.590164-12.590164s5.87541-12.590164 12.590164-12.590164h428.904918c6.714754 0 12.590164 5.87541 12.590164 12.590164s-5.036066 12.590164-12.590164 12.590164zM471.711475 363.436066h-243.409836c-6.714754 0-12.590164-5.87541-12.590164-12.590164s5.87541-12.590164 12.590164-12.590164h243.409836c6.714754 0 12.590164 5.87541 12.590164 12.590164s-5.87541 12.590164-12.590164 12.590164z" fill="#4988FD"></path>
    <path d="M893.062295 362.596721V872.918033c0 9.232787-5.87541 16.786885-13.429508 19.304918-2.518033 0.839344-5.036066 1.678689-7.554098 1.678688H27.698361c-11.75082 0-20.983607-9.232787-20.983607-20.983606V363.436066l370.15082 231.659016c36.931148 23.501639 83.934426 23.501639 121.704918 1.678688l394.491803-234.177049z" fill="#4988FD"></path>
    <path d="M876.27541 662.242623v228.301639c-2.518033 0.839344-5.036066 1.678689-7.554099 1.678689H612.721311c-5.036066-16.786885-7.554098-34.413115-7.554098-52.878689 0-106.596721 86.452459-193.04918 193.04918-193.04918 28.537705 0 54.557377 5.036066 78.059017 15.947541z" fill="#2767F4"></path>
    <path d="M679.868852 936.708197c-20.144262-30.216393-31.895082-67.147541-31.895082-105.757377 0-106.596721 86.452459-193.04918 193.049181-193.049181s193.04918 86.452459 193.04918 193.049181-86.452459 193.04918-193.04918 193.04918c-67.147541 0-126.740984-35.252459-161.154099-87.291803" fill="#21D3AC"></path>
    <path d="M937.547541 817.521311l-57.07541-57.075409c-6.714754-6.714754-18.465574-6.714754-26.019672 0-6.714754 6.714754-6.714754 18.465574 0 26.019672l26.019672 26.019672H757.088525c-10.072131 0-18.465574 8.393443-18.465574 18.465574 0 10.072131 8.393443 18.465574 18.465574 18.465573h123.383606l-26.019672 26.019673c-6.714754 6.714754-6.714754 18.465574 0 26.019672 3.357377 3.357377 8.393443 5.036066 12.590164 5.036065 5.036066 0 9.232787-1.678689 12.590164-5.036065l57.07541-57.07541c3.357377-3.357377 5.036066-8.393443 5.036065-12.590164s-0.839344-10.911475-4.196721-14.268853z" fill="#FFFFFF"></path>
</svg>