<?xml version="1.0" encoding="utf-8"?>
<!-- Generator: Adobe Illustrator 19.0.0, SVG Export Plug-In . SVG Version: 6.00 Build 0)  -->
<svg version="1.1" id="图层_1" xmlns="http://www.w3.org/2000/svg" xmlns:xlink="http://www.w3.org/1999/xlink" x="0px" y="0px"
	 viewBox="-387 257 184.8 47" style="enable-background:new -387 257 184.8 47;" xml:space="preserve">
<style type="text/css">
	.st0{fill:url(#SVGID_1_);}
	.st1{fill:url(#SVGID_2_);}
	.st2{fill:url(#SVGID_3_);}
	.st3{fill:url(#SVGID_4_);}
	.st4{fill:#FFFFFF;}
	.st5{fill:url(#SVGID_5_);}
	.st6{fill:url(#SVGID_6_);}
	.st7{fill:url(#SVGID_7_);}
	.st8{fill:#3370FF;}
	.st9{fill:url(#SVGID_8_);}
	.st10{fill:#333333;}
	.st11{fill:#3F3F3F;}
	.st12{fill:url(#SVGID_9_);}
	.st13{fill:url(#SVGID_10_);}
	.st14{fill:url(#SVGID_11_);}
	.st15{fill:url(#SVGID_12_);}
	.st16{fill:url(#SVGID_13_);}
	.st17{fill:url(#SVGID_14_);}
	.st18{fill:#474747;}
	.st19{fill:#3A3A3A;}
	.st20{fill:url(#SVGID_15_);}
	.st21{fill:url(#SVGID_16_);}
	.st22{fill:url(#SVGID_17_);}
	.st23{fill:url(#SVGID_18_);}
	.st24{fill:url(#SVGID_19_);}
	.st25{fill:url(#SVGID_20_);}
	.st26{fill:url(#SVGID_21_);}
	.st27{fill:url(#SVGID_22_);}
	.st28{fill:url(#SVGID_23_);}
	.st29{fill:url(#SVGID_24_);}
	.st30{fill:url(#SVGID_25_);}
	.st31{fill:url(#SVGID_26_);}
	.st32{fill:url(#SVGID_27_);}
	.st33{fill:url(#SVGID_28_);}
	.st34{fill:#FDFFBD;}
	.st35{fill:#9FDAFF;}
</style>
<g>
	<g>
		
			<linearGradient id="SVGID_1_" gradientUnits="userSpaceOnUse" x1="-714.9966" y1="9.1212" x2="-710.7417" y2="9.1212" gradientTransform="matrix(1 0 0 -1 0 562)">
			<stop  offset="0" style="stop-color:#D84D28"/>
			<stop  offset="1" style="stop-color:#E5762C"/>
		</linearGradient>
		<path class="st0" d="M-714.5,556.3L-714.5,556.3c-0.5-0.2-0.6-0.7-0.4-1.1l2.6-5.4c0.2-0.4,0.6-0.5,1-0.4h0.1
			c0.4,0.2,0.5,0.6,0.4,1l-2.6,5.4C-713.6,556.4-714.1,556.5-714.5,556.3z"/>
		
			<linearGradient id="SVGID_2_" gradientUnits="userSpaceOnUse" x1="-720.8338" y1="8.8506" x2="-714.5417" y2="8.8506" gradientTransform="matrix(1 0 0 -1 0 562)">
			<stop  offset="0" style="stop-color:#D84D28"/>
			<stop  offset="1" style="stop-color:#E5762C"/>
		</linearGradient>
		<path class="st1" d="M-720.3,558.7L-720.3,558.7c-0.5-0.2-0.6-0.7-0.4-1.1l4.7-9.6c0.2-0.4,0.6-0.5,1-0.4h0.1
			c0.4,0.2,0.5,0.6,0.4,1l-4.7,9.6C-719.5,558.7-719.9,558.8-720.3,558.7z"/>
		
			<linearGradient id="SVGID_3_" gradientUnits="userSpaceOnUse" x1="-723.3965" y1="11.8712" x2="-718.2416" y2="11.8712" gradientTransform="matrix(1 0 0 -1 0 562)">
			<stop  offset="0" style="stop-color:#D84D28"/>
			<stop  offset="1" style="stop-color:#E5762C"/>
		</linearGradient>
		<path class="st2" d="M-722.9,554.5L-722.9,554.5c-0.5-0.2-0.6-0.7-0.4-1.1l3.5-7.3c0.2-0.4,0.6-0.5,1-0.4h0.1
			c0.4,0.2,0.5,0.6,0.4,1l-3.5,7.3C-722,554.6-722.5,554.7-722.9,554.5z"/>
	</g>
	
		<linearGradient id="SVGID_4_" gradientUnits="userSpaceOnUse" x1="-730.1294" y1="23.3305" x2="-698.9293" y2="23.3305" gradientTransform="matrix(1 0 0 -1 0 562)">
		<stop  offset="0" style="stop-color:#D84D28"/>
		<stop  offset="1" style="stop-color:#E5762C"/>
	</linearGradient>
	<path class="st3" d="M-705,522.2c-8,5.4-16,10.7-24,16.1c-1.6,1.1-1.5,3.5,0.3,4.4c1,0.5,2,1,3,1.4c0.8,0.4,1.7,0.3,2.5-0.1
		c1-0.6,1.9-1.2,2.9-1.9c0.7-0.5,1.6-0.5,2.5-0.1c3.1,1.5,6.2,3,9.3,4.5c0.8,0.4,1.3,1.1,1.4,2c0.1,1.1,0.2,2.3,0.3,3.4
		c0.1,0.9,0.6,1.6,1.4,2l2.9,1.4c1.8,0.9,3.8-0.5,3.6-2.5c-0.7-9.6-1.4-19.2-2.1-28.8C-701.2,522.2-703.4,521.1-705,522.2z
		 M-708.7,535.6c-1.8-0.6-2.5-2.6-1.5-4.2c0.7-1,2.1-1.5,3.3-1.1c1.8,0.6,2.5,2.6,1.5,4.2C-706.1,535.5-707.5,535.9-708.7,535.6z"/>
</g>
<g>
	<g>
		<path class="st4" d="M-672.8,1405.3h-0.2c-0.8,0-1.4-0.6-1.4-1.4v-11.1c0-0.8,0.6-1.4,1.4-1.4h0.2c0.8,0,1.4,0.6,1.4,1.4v11.1
			C-671.4,1404.7-672.1,1405.3-672.8,1405.3z"/>
		<path class="st4" d="M-680.6,1413.9h-0.2c-0.8,0-1.4-0.6-1.4-1.4v-19.7c0-0.8,0.6-1.4,1.4-1.4h0.2c0.8,0,1.4,0.6,1.4,1.4v19.7
			C-679.2,1413.3-679.8,1413.9-680.6,1413.9z"/>
		<path class="st4" d="M-688.2,1409.1h-0.2c-0.8,0-1.4-0.6-1.4-1.4v-14.9c0-0.8,0.6-1.4,1.4-1.4h0.2c0.8,0,1.4,0.6,1.4,1.4v14.9
			C-686.8,1408.5-687.4,1409.1-688.2,1409.1z"/>
	</g>
	<path class="st4" d="M-684.6,1341c-9,15.4-18,30.7-26.9,46.1c-1.8,3.1,0.4,7,4,7c2,0,4.1,0,6.1,0c1.6,0,3.1-0.8,4-2.2
		c1.1-1.8,2.2-3.6,3.3-5.4c0.8-1.4,2.3-2.2,4-2.2c6.4,0,12.7,0,19.1,0c1.6,0,3.1,0.8,4,2.2c1.1,1.8,2.2,3.6,3.3,5.4
		c0.8,1.4,2.3,2.2,4,2.2h5.9c3.6,0,5.8-3.9,4-7c-8.9-15.4-17.8-30.7-26.7-46.1C-678.3,1338-682.8,1338-684.6,1341z M-680,1366.2
		c-3.4,0.4-6.2-2.4-5.8-5.8c0.3-2.3,2.2-4.2,4.5-4.5c3.4-0.4,6.2,2.4,5.8,5.8C-675.8,1364-677.7,1365.9-680,1366.2z"/>
</g>
<g>
	
		<linearGradient id="SVGID_5_" gradientUnits="userSpaceOnUse" x1="-266.2136" y1="-116.65" x2="-263.2136" y2="-116.65" gradientTransform="matrix(1 0 0 -1 0 567.8)">
		<stop  offset="0" style="stop-color:#D84D28"/>
		<stop  offset="1" style="stop-color:#E5762C"/>
	</linearGradient>
	<path class="st5" d="M-264.7,691.4h-0.2c-0.8,0-1.4-0.6-1.4-1.4v-11.1c0-0.8,0.6-1.4,1.4-1.4h0.2c0.8,0,1.4,0.6,1.4,1.4V690
		C-263.3,690.8-264,691.4-264.7,691.4z"/>
	
		<linearGradient id="SVGID_6_" gradientUnits="userSpaceOnUse" x1="-274.0136" y1="-120.95" x2="-271.0136" y2="-120.95" gradientTransform="matrix(1 0 0 -1 0 567.8)">
		<stop  offset="0" style="stop-color:#D84D28"/>
		<stop  offset="1" style="stop-color:#E5762C"/>
	</linearGradient>
	<path class="st6" d="M-272.5,700h-0.2c-0.8,0-1.4-0.6-1.4-1.4v-19.7c0-0.8,0.6-1.4,1.4-1.4h0.2c0.8,0,1.4,0.6,1.4,1.4v19.7
		C-271.1,699.4-271.7,700-272.5,700z"/>
	
		<linearGradient id="SVGID_7_" gradientUnits="userSpaceOnUse" x1="-281.6136" y1="-118.55" x2="-278.6136" y2="-118.55" gradientTransform="matrix(1 0 0 -1 0 567.8)">
		<stop  offset="0" style="stop-color:#D84D28"/>
		<stop  offset="1" style="stop-color:#E5762C"/>
	</linearGradient>
	<path class="st7" d="M-280.1,695.2h-0.2c-0.8,0-1.4-0.6-1.4-1.4v-14.9c0-0.8,0.6-1.4,1.4-1.4h0.2c0.8,0,1.4,0.6,1.4,1.4v14.9
		C-278.7,694.6-279.3,695.2-280.1,695.2z"/>
</g>
<g>
	<path class="st8" d="M-273,625.2c-0.9,0.4-1.7,1-2.2,1.9c-9,15.4-18,30.7-26.9,46.1c-1.8,3.1,0.4,7,4,7c2,0,4.1,0,6.1,0
		c1.6,0,3.1-0.8,4-2.2c1.1-1.8,2.2-3.6,3.3-5.4c0.8-1.4,2.3-2.2,4-2.2c2.6,0,5.1,0,7.7,0V625.2z"/>
	<path class="st4" d="M-242.8,673.3c-8.9-15.4-17.8-30.7-26.7-46.1c-0.6-1-1.4-1.6-2.4-2v45.3c2.6,0,5.2,0,7.9,0
		c1.6,0,3.1,0.8,4,2.2c1.1,1.8,2.2,3.6,3.3,5.4c0.8,1.4,2.3,2.2,4,2.2h5.9C-243.2,680.3-241,676.4-242.8,673.3z"/>
</g>
<g>
	<path class="st8" d="M-126,702.8h-0.2c-0.8,0-1.4-0.6-1.4-1.4v-11.1c0-0.8,0.6-1.4,1.4-1.4h0.2c0.8,0,1.4,0.6,1.4,1.4v11.1
		C-124.6,702.2-125.3,702.8-126,702.8z"/>
	<path class="st8" d="M-133.8,711.4h-0.2c-0.8,0-1.4-0.6-1.4-1.4v-19.7c0-0.8,0.6-1.4,1.4-1.4h0.2c0.8,0,1.4,0.6,1.4,1.4V710
		C-132.4,710.8-133,711.4-133.8,711.4z"/>
	<path class="st8" d="M-141.4,706.6h-0.2c-0.8,0-1.4-0.6-1.4-1.4v-14.9c0-0.8,0.6-1.4,1.4-1.4h0.2c0.8,0,1.4,0.6,1.4,1.4v14.9
		C-140,706-140.6,706.6-141.4,706.6z"/>
</g>
<linearGradient id="SVGID_8_" gradientUnits="userSpaceOnUse" x1="-164.0409" y1="-102.1" x2="-134.3" y2="-102.1" gradientTransform="matrix(1 0 0 -1 0 562)">
	<stop  offset="0" style="stop-color:#D84D28"/>
	<stop  offset="1" style="stop-color:#E5762C"/>
</linearGradient>
<path class="st9" d="M-141.2,662.1c0-3.9,3.1-7.2,6.9-7.4c0-9.6,0-18.1,0-18.1c-0.9,0.4-1.7,1-2.2,1.9c-9,15.4-18,30.7-26.9,46.1
	c-1.8,3.1,0.4,7,4,7c2,0,4.1,0,6.1,0c1.6,0,3.1-0.8,4-2.2c1.1-1.8,2.2-3.6,3.3-5.4c0.8-1.4,2.3-2.2,4-2.2c2.6,0,5.1,0,7.7,0
	c0,0,0-5.3,0-12.3C-138.2,669.2-141.2,666-141.2,662.1z"/>
<path class="st10" d="M-104.1,684.7c-8.9-15.4-17.8-30.7-26.7-46.1c-0.6-1-1.4-1.6-2.4-2v18.1c3.9,0.3,6.9,3.5,6.9,7.4
	c0,3.9-3.1,7.2-6.9,7.4v12.4c2.6,0,5.2,0,7.9,0c1.6,0,3.1,0.8,4,2.2c1.1,1.8,2.2,3.6,3.3,5.4c0.8,1.4,2.3,2.2,4,2.2h5.9
	C-104.5,691.7-102.3,687.8-104.1,684.7z"/>
<g>
	<g>
		<g>
			<g>
				<path class="st10" d="M-648.6,600.3l-1.6-1.5c-0.3-0.3-0.7-0.4-1.1-0.4h-7c-0.4,0-0.8,0.2-1.1,0.4l-1.6,1.5
					c-0.3,0.3-0.5,0.7-0.5,1.1v7c0,1.2,1.3,1.9,2.3,1.4l0.2-0.1c0.5-0.3,0.8-0.8,0.8-1.4v-0.7c0-0.9,0.7-1.6,1.6-1.6h3.5
					c0.9,0,1.6,0.7,1.6,1.6s0.7,1.6,1.6,1.6h0.2c0.9,0,1.6-0.7,1.6-1.6v-6.2C-648.2,600.9-648.3,600.5-648.6,600.3z M-652.9,603.7
					h-3.7c-0.8,0-1.5-0.7-1.5-1.5s0.7-1.5,1.5-1.5h3.7c0.8,0,1.5,0.7,1.5,1.5C-651.5,603-652.1,603.7-652.9,603.7z"/>
			</g>
		</g>
		<g>
			<path class="st10" d="M-632.5,600.9l-1.6-2.2c-0.2-0.3-0.6-0.5-0.9-0.5h-9.6c-0.6,0-1.2,0.5-1.2,1.2v9c0,0.4,0.2,0.8,0.6,1
				l0.9,0.5c0.8,0.4,1.8-0.1,1.8-1v-2.3c0-0.6,0.5-1.2,1.2-1.2h5.9c0.4,0,0.7-0.2,0.9-0.5l2-2.7
				C-632.2,601.9-632.2,601.4-632.5,600.9z M-635.9,602.6L-635.9,602.6c-0.2,0.3-0.6,0.5-1,0.5h-4.5c-0.6,0-1.2-0.5-1.2-1.2
				c0-0.6,0.5-1.2,1.2-1.2h4.7c0.3,0,0.6,0.1,0.7,0.4l0.1,0.1C-635.6,601.6-635.5,602.1-635.9,602.6z"/>
		</g>
		<g>
			<path class="st10" d="M-628.8,609.2L-628.8,609.2c-0.9,0-1.6-0.7-1.6-1.6v-8.3c0-0.6,0.3-1.1,0.8-1.4l0,0
				c1.1-0.6,2.5,0.2,2.5,1.4v8.3C-627.2,608.4-627.9,609.2-628.8,609.2z"/>
		</g>
		<g>
			<g>
				<path class="st10" d="M-611.4,600.9l-1.6-2.2c-0.2-0.3-0.6-0.5-0.9-0.5h-9.6c-0.6,0-1.2,0.5-1.2,1.2v9c0,0.4,0.2,0.8,0.6,1
					l0.9,0.5c0.8,0.4,1.8-0.1,1.8-1v-2.3c0-0.6,0.5-1.2,1.2-1.2h5.9c0.4,0,0.7-0.2,0.9-0.5l2-2.7
					C-611.1,601.9-611.1,601.4-611.4,600.9z M-614.8,602.6L-614.8,602.6c-0.2,0.3-0.6,0.5-1,0.5h-4.5c-0.6,0-1.2-0.5-1.2-1.2
					c0-0.6,0.5-1.2,1.2-1.2h4.7c0.3,0,0.6,0.1,0.7,0.4l0.1,0.1C-614.5,601.6-614.5,602.1-614.8,602.6z"/>
			</g>
		</g>
		<g>
			<path class="st10" d="M-596.7,599.9l-0.7-0.7c-0.6-0.6-1.3-0.9-2.1-0.9h-6.6c-0.8,0-1.6,0.3-2.1,0.9l-0.7,0.7
				c-0.6,0.6-0.9,1.3-0.9,2.1v3.4c0,0.8,0.3,1.6,0.9,2.1l0.7,0.7c0.6,0.6,1.3,0.9,2.1,0.9h6.6c0.8,0,1.6-0.3,2.1-0.9l0.7-0.7
				c0.6-0.6,0.9-1.3,0.9-2.1V602C-595.8,601.2-596.1,600.4-596.7,599.9z M-599.1,603.7c0,1.7-1.3,3-3,3h-1.4c-1.7,0-3-1.3-3-3l0,0
				c0-1.7,1.3-3,3-3h1.4C-600.4,600.7-599.1,602.1-599.1,603.7L-599.1,603.7z"/>
		</g>
		<g>
			<path class="st10" d="M-579.5,606.6l-1.6,2.1c-0.2,0.3-0.6,0.5-1,0.5h-9.1c-1.1,0-1.6-1.3-0.9-2.1l0,0c0.2-0.2,0.5-0.4,0.9-0.4
				h7.4c0.3,0,0.5-0.1,0.7-0.3l0,0c0.3-0.3,0.3-0.8,0-1.2l0,0c-0.2-0.2-0.4-0.3-0.7-0.3h-7.2c-0.4,0-0.7-0.2-1-0.5l-1.5-2
				c-0.3-0.4-0.3-1,0-1.5l1.6-2.1c0.2-0.3,0.6-0.5,1-0.5h9.1c1.1,0,1.6,1.3,0.9,2.1l0,0c-0.2,0.2-0.5,0.4-0.9,0.4h-7.3
				c-0.3,0-0.5,0.1-0.7,0.3l0,0c-0.3,0.3-0.3,0.8,0,1.2l0,0c0.2,0.2,0.4,0.3,0.7,0.3h7.3c0.4,0,0.7,0.2,1,0.5l1.5,2
				C-579.2,605.5-579.2,606.1-579.5,606.6z"/>
		</g>
		<g>
			<path class="st10" d="M-567.7,600.4L-567.7,600.4c-0.2,0.2-0.5,0.4-0.9,0.4h-1.5c-0.7,0-1.2,0.5-1.2,1.2v7c0,0.9-1,1.5-1.8,1.1
				l-0.8-0.5c-0.4-0.2-0.6-0.6-0.6-1.1V602c0-0.7-0.5-1.2-1.2-1.2h-1.5c-0.3,0-0.6-0.1-0.9-0.4l0,0c-0.8-0.8-0.2-2.1,0.9-2.1h8.7
				C-567.5,598.3-566.9,599.6-567.7,600.4z"/>
		</g>
	</g>
</g>
<path class="st11" d="M-662.6,537.1l-2.1-2c-0.4-0.4-0.9-0.6-1.4-0.6h-9.2c-0.5,0-1.1,0.2-1.4,0.6l-2.1,2c-0.4,0.4-0.6,0.9-0.6,1.5
	v9.3c0,1.6,1.7,2.6,3.1,1.8l0.2-0.1c0.6-0.4,1-1.1,1-1.8v-0.9c0-1.1,0.9-2.1,2.1-2.1h4.6c1.1,0,2.1,0.9,2.1,2.1
	c0,1.1,0.9,2.1,2.1,2.1h0.2c1.1,0,2.1-0.9,2.1-2.1v-8.3C-662,538.1-662.2,537.5-662.6,537.1z M-668.2,541.6h-4.9
	c-1.1,0-1.9-0.9-1.9-1.9c0-1.1,0.9-1.9,1.9-1.9h4.9c1.1,0,1.9,0.9,1.9,1.9C-666.3,540.8-667.2,541.6-668.2,541.6z"/>
<path class="st11" d="M-641.2,538l-2.1-2.9c-0.3-0.4-0.8-0.6-1.2-0.6h-12.7c-0.9,0-1.6,0.7-1.6,1.6v12c0,0.6,0.3,1.1,0.8,1.3
	l1.2,0.7c1,0.6,2.3-0.2,2.3-1.3v-3.1c0-0.9,0.7-1.6,1.6-1.6h7.8c0.5,0,1-0.2,1.2-0.6l2.7-3.6C-640.8,539.3-640.8,538.6-641.2,538z
	 M-645.7,540.2L-645.7,540.2c-0.3,0.4-0.8,0.7-1.3,0.7h-6c-0.9,0-1.6-0.7-1.6-1.6c0-0.9,0.7-1.6,1.6-1.6h6.2c0.4,0,0.7,0.2,1,0.5
	l0.1,0.1C-645.3,538.9-645.3,539.6-645.7,540.2z"/>
<linearGradient id="SVGID_9_" gradientUnits="userSpaceOnUse" x1="-638.5188" y1="20.7901" x2="-634.1692" y2="20.7901" gradientTransform="matrix(1 0 0 -1 0 562)">
	<stop  offset="0" style="stop-color:#D84D28"/>
	<stop  offset="1" style="stop-color:#E5762C"/>
</linearGradient>
<path class="st12" d="M-636.4,548.9L-636.4,548.9c-1.2,0-2.2-1-2.2-2.2v-11c0-0.8,0.4-1.5,1.1-1.9l0,0c1.4-0.8,3.3,0.2,3.3,1.9v11
	C-634.2,548-635.2,548.9-636.4,548.9z"/>
<path class="st11" d="M-613.3,538l-2.1-2.9c-0.3-0.4-0.8-0.6-1.2-0.6h-12.7c-0.9,0-1.6,0.7-1.6,1.6v12c0,0.6,0.3,1.1,0.8,1.3
	l1.2,0.7c1,0.6,2.3-0.2,2.3-1.3v-3.1c0-0.9,0.7-1.6,1.6-1.6h7.8c0.5,0,1-0.2,1.2-0.6l2.7-3.6C-612.9,539.3-612.9,538.6-613.3,538z
	 M-617.8,540.2L-617.8,540.2c-0.3,0.4-0.8,0.7-1.3,0.7h-6c-0.9,0-1.6-0.7-1.6-1.6c0-0.9,0.7-1.6,1.6-1.6h6.2c0.4,0,0.7,0.2,1,0.5
	l0.1,0.1C-617.4,538.9-617.4,539.6-617.8,540.2z"/>
<path class="st11" d="M-593.9,536.6l-0.9-0.9c-0.7-0.7-1.8-1.2-2.8-1.2h-8.7c-1.1,0-2.1,0.4-2.8,1.2l-0.9,0.9
	c-0.7,0.7-1.2,1.8-1.2,2.8v4.6c0,1.1,0.4,2.1,1.2,2.8l0.9,0.9c0.7,0.7,1.8,1.2,2.8,1.2h8.7c1.1,0,2.1-0.4,2.8-1.2l0.9-0.9
	c0.7-0.7,1.2-1.8,1.2-2.8v-4.6C-592.7,538.4-593.1,537.4-593.9,536.6z M-597,541.7c0,2.2-1.8,4-4,4h-1.9c-2.2,0-4-1.8-4-4l0,0
	c0-2.2,1.8-4,4-4h1.9C-598.8,537.7-597,539.5-597,541.7L-597,541.7z"/>
<path class="st11" d="M-571.1,545.5l-2.1,2.8c-0.3,0.4-0.8,0.7-1.3,0.7h-12c-1.4,0-2.2-1.7-1.1-2.7l0,0c0.3-0.3,0.7-0.5,1.1-0.5h9.7
	c0.4,0,0.7-0.2,0.9-0.4l0,0c0.4-0.4,0.4-1.1,0-1.6v-0.1c-0.2-0.3-0.6-0.5-1-0.5h-9.6c-0.5,0-1-0.2-1.3-0.6l-2-2.7
	c-0.4-0.6-0.4-1.3,0-1.9l2.1-2.8c0.3-0.4,0.8-0.7,1.3-0.7h12c1.4,0,2.2,1.7,1.1,2.8l0,0c-0.3,0.3-0.7,0.5-1.1,0.5h-9.7
	c-0.4,0-0.7,0.2-0.9,0.4l0,0c-0.4,0.4-0.4,1.1,0,1.6l0.1,0.1c0.2,0.3,0.6,0.5,1,0.5h9.6c0.5,0,1,0.2,1.3,0.6l2,2.6
	C-570.7,544.1-570.7,544.9-571.1,545.5z"/>
<path class="st11" d="M-555.5,537.3L-555.5,537.3c-0.3,0.3-0.7,0.5-1.1,0.5h-2c-0.9,0-1.6,0.7-1.6,1.6v9.3c0,1.2-1.3,2-2.4,1.4
	l-1.1-0.6c-0.5-0.3-0.8-0.8-0.8-1.4v-8.6c0-0.9-0.7-1.6-1.6-1.6h-2c-0.4,0-0.8-0.2-1.1-0.5l0,0c-1-1-0.3-2.7,1.1-2.7h11.6
	C-555.3,534.5-554.5,536.3-555.5,537.3z"/>
<g>
	<g>
		
			<linearGradient id="SVGID_10_" gradientUnits="userSpaceOnUse" x1="-359.9416" y1="344.5742" x2="-355.3629" y2="344.5742" gradientTransform="matrix(1 0 0 -1 0 562)">
			<stop  offset="0" style="stop-color:#D84D28"/>
			<stop  offset="1" style="stop-color:#E5762C"/>
		</linearGradient>
		<path class="st13" d="M-359.4,221.1L-359.4,221.1c-0.5-0.2-0.6-0.8-0.4-1.2l2.8-5.8c0.2-0.4,0.6-0.5,1.1-0.4h0.1
			c0.4,0.2,0.5,0.6,0.4,1.1l-2.8,5.8C-358.4,221.2-359,221.3-359.4,221.1z"/>
		
			<linearGradient id="SVGID_11_" gradientUnits="userSpaceOnUse" x1="-366.2231" y1="344.2829" x2="-359.4521" y2="344.2829" gradientTransform="matrix(1 0 0 -1 0 562)">
			<stop  offset="0" style="stop-color:#D84D28"/>
			<stop  offset="1" style="stop-color:#E5762C"/>
		</linearGradient>
		<path class="st14" d="M-365.6,223.7L-365.6,223.7c-0.5-0.2-0.6-0.8-0.4-1.2l5.1-10.3c0.2-0.4,0.6-0.5,1.1-0.4h0.1
			c0.4,0.2,0.5,0.6,0.4,1.1l-5.1,10.3C-364.8,223.7-365.2,223.8-365.6,223.7z"/>
		
			<linearGradient id="SVGID_12_" gradientUnits="userSpaceOnUse" x1="-368.9809" y1="347.5334" x2="-363.4336" y2="347.5334" gradientTransform="matrix(1 0 0 -1 0 562)">
			<stop  offset="0" style="stop-color:#D84D28"/>
			<stop  offset="1" style="stop-color:#E5762C"/>
		</linearGradient>
		<path class="st15" d="M-368.4,219.2L-368.4,219.2c-0.5-0.2-0.6-0.8-0.4-1.2l3.8-7.9c0.2-0.4,0.6-0.5,1.1-0.4h0.1
			c0.4,0.2,0.5,0.6,0.4,1.1l-3.8,7.9C-367.5,219.3-368,219.4-368.4,219.2z"/>
	</g>
	
		<linearGradient id="SVGID_13_" gradientUnits="userSpaceOnUse" x1="-376.2262" y1="359.865" x2="-342.6514" y2="359.865" gradientTransform="matrix(1 0 0 -1 0 562)">
		<stop  offset="0" style="stop-color:#D84D28"/>
		<stop  offset="1" style="stop-color:#E5762C"/>
	</linearGradient>
	<path class="st16" d="M-349.2,184.4c-8.6,5.8-17.2,11.5-25.8,17.3c-1.7,1.2-1.6,3.8,0.3,4.7c1.1,0.5,2.2,1.1,3.2,1.5
		c0.9,0.4,1.8,0.3,2.7-0.1c1.1-0.6,2-1.3,3.1-2c0.8-0.5,1.7-0.5,2.7-0.1c3.3,1.6,6.7,3.2,10,4.8c0.9,0.4,1.4,1.2,1.5,2.2
		c0.1,1.2,0.2,2.5,0.3,3.7c0.1,1,0.6,1.7,1.5,2.2l3.1,1.5c1.9,1,4.1-0.5,3.9-2.7c-0.8-10.3-1.5-20.7-2.3-31
		C-345.1,184.4-347.5,183.2-349.2,184.4z M-353.2,198.8c-1.9-0.6-2.7-2.8-1.6-4.5c0.8-1.1,2.3-1.6,3.6-1.2c1.9,0.6,2.7,2.8,1.6,4.5
		C-350.4,198.7-351.9,199.2-353.2,198.8z"/>
</g>
<path class="st11" d="M-307.2,200.3l-2.3-2.2c-0.4-0.4-1-0.6-1.5-0.6h-9.9c-0.5,0-1.2,0.2-1.5,0.6l-2.3,2.2c-0.4,0.4-0.6,1-0.6,1.6
	v10c0,1.7,1.8,2.8,3.3,1.9l0.2-0.1c0.6-0.4,1.1-1.2,1.1-1.9v-1c0-1.2,1-2.3,2.3-2.3h5c1.2,0,2.3,1,2.3,2.3c0,1.2,1,2.3,2.3,2.3h0.2
	c1.2,0,2.3-1,2.3-2.3v-8.9C-306.5,201.3-306.7,200.7-307.2,200.3z M-313.2,205.1h-5.3c-1.2,0-2-1-2-2c0-1.2,1-2,2-2h5.3
	c1.2,0,2,1,2,2C-311.1,204.2-312.1,205.1-313.2,205.1z"/>
<path class="st11" d="M-284.1,201.2l-2.3-3.1c-0.3-0.4-0.9-0.6-1.3-0.6h-13.7c-1,0-1.7,0.8-1.7,1.7v12.9c0,0.6,0.3,1.2,0.9,1.4
	l1.3,0.8c1.1,0.6,2.5-0.2,2.5-1.4v-3.3c0-1,0.8-1.7,1.7-1.7h8.4c0.5,0,1.1-0.2,1.3-0.6l2.9-3.9
	C-283.7,202.6-283.7,201.9-284.1,201.2z M-289,203.6L-289,203.6c-0.3,0.4-0.9,0.8-1.4,0.8h-6.5c-1,0-1.7-0.8-1.7-1.7
	s0.8-1.7,1.7-1.7h6.7c0.4,0,0.8,0.2,1.1,0.5l0.1,0.1C-288.5,202.2-288.5,202.9-289,203.6z"/>
<linearGradient id="SVGID_14_" gradientUnits="userSpaceOnUse" x1="-281.2511" y1="357.3211" x2="-276.5705" y2="357.3211" gradientTransform="matrix(1 0 0 -1 0 562)">
	<stop  offset="0" style="stop-color:#D84D28"/>
	<stop  offset="1" style="stop-color:#E5762C"/>
</linearGradient>
<path class="st17" d="M-279,213L-279,213c-1.3,0-2.4-1.1-2.4-2.4v-11.8c0-0.9,0.4-1.6,1.2-2l0,0c1.5-0.9,3.6,0.2,3.6,2v11.8
	C-276.6,212-277.7,213-279,213z"/>
<path class="st11" d="M-254.1,201.2l-2.3-3.1c-0.3-0.4-0.9-0.6-1.3-0.6h-13.7c-1,0-1.7,0.8-1.7,1.7v12.9c0,0.6,0.3,1.2,0.9,1.4
	l1.3,0.8c1.1,0.6,2.5-0.2,2.5-1.4v-3.3c0-1,0.8-1.7,1.7-1.7h8.4c0.5,0,1.1-0.2,1.3-0.6l2.9-3.9
	C-253.7,202.6-253.7,201.9-254.1,201.2z M-259,203.6L-259,203.6c-0.3,0.4-0.9,0.8-1.4,0.8h-6.5c-1,0-1.7-0.8-1.7-1.7
	s0.8-1.7,1.7-1.7h6.7c0.4,0,0.8,0.2,1.1,0.5l0.1,0.1C-258.5,202.2-258.5,202.9-259,203.6z"/>
<path class="st11" d="M-233.2,199.7l-1-1c-0.8-0.8-1.9-1.3-3-1.3h-9.4c-1.2,0-2.3,0.4-3,1.3l-1,1c-0.8,0.8-1.3,1.9-1.3,3v5
	c0,1.2,0.4,2.3,1.3,3l1,1c0.8,0.8,1.9,1.3,3,1.3h9.4c1.2,0,2.3-0.4,3-1.3l1-1c0.8-0.8,1.3-1.9,1.3-3v-5
	C-231.9,201.7-232.4,200.6-233.2,199.7z M-236.6,205.2c0,2.4-1.9,4.3-4.3,4.3h-2c-2.4,0-4.3-1.9-4.3-4.3l0,0c0-2.4,1.9-4.3,4.3-4.3
	h2C-238.5,200.9-236.6,202.8-236.6,205.2L-236.6,205.2z"/>
<path class="st11" d="M-208.7,209.3l-2.3,3c-0.3,0.4-0.9,0.8-1.4,0.8h-12.9c-1.5,0-2.4-1.8-1.2-2.9l0,0c0.3-0.3,0.8-0.5,1.2-0.5
	h10.4c0.4,0,0.8-0.2,1-0.4l0,0c0.4-0.4,0.4-1.2,0-1.7v-0.1c-0.2-0.3-0.6-0.5-1.1-0.5h-10.3c-0.5,0-1.1-0.2-1.4-0.6l-2.2-2.9
	c-0.4-0.6-0.4-1.4,0-2l2.3-3c0.3-0.4,0.9-0.8,1.4-0.8h12.9c1.5,0,2.4,1.8,1.2,3l0,0c-0.3,0.3-0.8,0.5-1.2,0.5h-10.4
	c-0.4,0-0.8,0.2-1,0.4l0,0c-0.4,0.4-0.4,1.2,0,1.7l0.1,0.1c0.2,0.3,0.6,0.5,1.1,0.5h10.3c0.5,0,1.1,0.2,1.4,0.6l2.2,2.8
	C-208.3,207.8-208.3,208.6-208.7,209.3z"/>
<path class="st11" d="M-191.9,200.5L-191.9,200.5c-0.3,0.3-0.8,0.5-1.2,0.5h-2.2c-1,0-1.7,0.8-1.7,1.7v10c0,1.3-1.4,2.2-2.6,1.5
	l-1.2-0.6c-0.5-0.3-0.9-0.9-0.9-1.5v-9.3c0-1-0.8-1.7-1.7-1.7h-2.2c-0.4,0-0.9-0.2-1.2-0.5l0,0c-1.1-1.1-0.3-2.9,1.2-2.9h12.5
	C-191.7,197.5-190.8,199.4-191.9,200.5z"/>
<path class="st18" d="M-281.2,512.3c0,0.3,0,0.9-0.4,1.4c-0.3,0.3-0.6,0.5-1.2,0.7c-0.4,0.1-3.3,1.1-4.1,0c-0.2-0.3-0.1-0.4-0.4-1
	c-0.3-0.5-0.5-0.8-0.8-1.1l-2.6-2.3c-1.1-1-2.9-0.4-3.2,1.1l-0.4,1.9c-0.2,0.9-1,1.6-1.9,1.6h-2.3c-1.3,0-2.2-1.2-1.9-2.4l3.7-16.4
	c0.2-0.9,1-1.5,1.9-1.5h7.9c0.9,0,1.7,0.6,1.9,1.5L-281.2,512.3z M-287.9,502.5L-287.9,502.5c-0.6-3.2-5.1-3.2-5.8,0l0,0
	c-0.4,1.8,1,3.5,2.9,3.5l0,0C-288.9,505.9-287.5,504.3-287.9,502.5z"/>
<path class="st18" d="M-272.4,509.4v3.5c0,1.1-0.9,1.9-1.9,1.9h-2.4c-1.1,0-1.9-0.9-1.9-1.9v-16.5c0-1.1,0.9-1.9,1.9-1.9h8.1
	c3.5,0,5.8,0.6,6.8,1.9c0.5,0.7,0.8,1.6,0.8,2.8v3.3c0,2.2-1,3.7-3,4.4c-1.1,0.4-2.9,0.6-5.5,0.6h-1.1
	C-271.6,507.4-272.4,508.3-272.4,509.4z M-267.7,498.7l-1.6-1.4c-1.2-1.1-3.2-0.2-3.2,1.4v4c0,1.1,0.9,1.9,1.9,1.9l0,0
	c1.2,0,1.9-0.1,2.4-0.3c0.8-0.3,1.2-1,1.2-2.1v-2C-266.9,499.7-267.2,499.2-267.7,498.7z"/>
<path class="st18" d="M-255.2,514.7L-255.2,514.7c-1.7,0-3.1-1.4-3.1-3.1v-14.1c0-1.7,1.4-3.1,3.1-3.1l0,0c1.7,0,3.1,1.4,3.1,3.1
	v14.1C-252.1,513.3-253.5,514.7-255.2,514.7z"/>
<path class="st18" d="M-243.1,508.5v3.2c0,1-0.8,1.8-1.8,1.8h-2.2c-1,0-1.8-0.8-1.8-1.8v-15.3c0-1,0.8-1.8,1.8-1.8h7.5
	c3.3,0,5.4,0.6,6.3,1.8c0.5,0.6,0.7,1.5,0.7,2.6v3.1c0,2.1-0.9,3.4-2.7,4.1c-1,0.4-2.7,0.6-5.1,0.6h-1
	C-242.3,506.7-243.1,507.5-243.1,508.5z M-238.7,498.7l-1.5-1.3c-1.1-1-3-0.2-3,1.3v3.7c0,1,0.8,1.8,1.8,1.8l0,0
	c1.1,0,1.8-0.1,2.2-0.3c0.7-0.3,1.1-0.9,1.1-1.9v-1.9C-238,499.5-238.2,499.1-238.7,498.7z"/>
<path class="st18" d="M-213.5,510.1c0,0.9-0.3,1.6-0.8,2.1c-1.1,1-3.5,1.5-7.3,1.5c-2,0-3.7-0.1-5-0.4c-1.2-0.2-2.1-0.6-2.7-1.1
	c-0.6-0.5-0.8-1.2-0.8-2.1V498c0-1.3,0.6-2.2,1.8-2.8c1.3-0.6,3.5-0.8,6.5-0.8s5.2,0.3,6.5,0.8c1.2,0.5,1.8,1.5,1.8,2.8V510.1z
	 M-220.2,497.7L-220.2,497.7c-1.6-1.2-3.8-0.1-3.8,1.8v11.1c0,0.4,0.2,0.8,0.7,1.1s1,0.4,1.6,0.4s1.1-0.1,1.6-0.4s0.7-0.6,0.7-1.1
	v-11.4c0-0.4,0-0.7-0.1-0.9C-219.7,498.1-219.9,497.9-220.2,497.7z"/>
<path class="st18" d="M-194.5,508.5c0,1.5-0.3,2.6-0.8,3.3c-0.5,0.7-1.3,1.2-2.4,1.5c-1.2,0.3-2.9,0.4-5.2,0.4c-4,0-6.4-0.6-7.2-1.8
	c-0.3-0.5-0.5-1-0.6-1.5c0-0.2,0-0.7,0-1.6l0,0c0-0.8,0.6-1.4,1.4-1.4c1,0,2.1,0,3.1,0c-0.1,0.4-0.1,1.3,0.4,2
	c1,1.3,3.5,1.2,4.7-0.1c0.6-0.7,0.7-1.5,0.7-1.9c0-0.6-0.1-1-0.4-1.3c-0.3-0.4-1.3-0.7-2.9-1c-2.3-0.3-3.6-0.6-4.2-0.7
	c-1.5-0.4-2.4-1.1-2.7-2.1c-0.2-0.5-0.2-1.6-0.2-3.3c0-1.4,0.2-2.5,0.7-3.1c0.4-0.6,1.2-1,2.2-1.2c1.2-0.2,2.8-0.3,4.9-0.3
	c3.9,0,6.2,0.5,7.1,1.5c0.4,0.4,0.6,0.9,0.7,1.5c0,0.2,0,0.8,0,1.7v1.4c-1.7,0-3.3,0-5,0c0.1-0.3,0.2-0.9,0.2-1.5
	c0-0.4,0-0.9-0.2-1.3c-0.6-1.2-2.9-1.9-4.2-0.9c-0.2,0.2-0.6,0.5-0.8,1.3v0.6c0,1,0,1.5,0,1.6c0.1,0.6,0.3,1.1,0.6,1.3
	s1.1,0.5,2.3,0.7c1.9,0.3,3,0.5,3.4,0.6c1.6,0.4,2.6,0.8,3.1,1.2c0.4,0.3,0.7,0.8,0.9,1.4C-194.5,506.2-194.5,507.1-194.5,508.5z"/>
<path class="st18" d="M-177.8,497.2c-0.9,0-1.8,0-2.8,0c-0.1,0-1,0.3-1.3,1.1c-0.4,0.9,0,1.7,0.1,1.7c0.2,0.2,0.5,0.5,0.6,1.1
	c0.1,0.3,0.1,0.5,0.1,0.7c0,3.3,0,6.6-0.1,9.9c0,0.9-0.7,1.7-1.7,1.7h-2.5c-0.9,0-1.7-0.7-1.7-1.7v-12.9c0-0.9-0.7-1.7-1.7-1.7h-1.7
	c-0.6-0.1-1.1-0.7-1.1-1.3c0-0.6,0.4-1.2,1.1-1.4h12.7c0.7,0,1.3,0.6,1.3,1.3S-177.1,497.2-177.8,497.2z"/>
<path class="st19" d="M-909.2,610.2c0,0.2,0,0.7-0.4,1.2c-0.3,0.3-0.7,0.5-1.3,0.6c-0.4,0.1-3.6,0.9-4.5,0c-0.2-0.2-0.1-0.3-0.4-0.8
	c-0.3-0.4-0.6-0.7-0.8-0.9l-2.9-1.9c-1.3-0.8-3.2-0.3-3.5,0.9l-0.4,1.6c-0.2,0.8-1.1,1.3-2.1,1.3h-2.5c-1.4,0-2.4-1-2.1-2l4.1-13.8
	c0.2-0.8,1.1-1.3,2.1-1.3h8.7c1,0,1.9,0.5,2.1,1.3L-909.2,610.2z M-916.5,601.9L-916.5,601.9c-0.7-2.7-5.6-2.7-6.3,0l0,0
	c-0.4,1.5,1.1,3,3.2,3l0,0C-917.7,604.8-916.1,603.4-916.5,601.9z"/>
<path class="st19" d="M-899.6,607.7v2.9c0,0.9-0.9,1.6-2.1,1.6h-2.7c-1.2,0-2.1-0.7-2.1-1.6v-13.9c0-0.9,0.9-1.6,2.1-1.6h8.9
	c3.9,0,6.4,0.5,7.5,1.6c0.6,0.6,0.9,1.4,0.9,2.3v2.8c0,1.9-1.1,3.1-3.2,3.7c-1.2,0.3-3.2,0.5-6,0.5h-1.2
	C-898.6,606-899.6,606.8-899.6,607.7z M-894.4,598.7l-1.7-1.2c-1.4-0.9-3.5-0.2-3.5,1.2v3.3c0,0.9,0.9,1.6,2.1,1.6l0,0
	c1.3,0,2.1-0.1,2.6-0.2c0.9-0.3,1.3-0.9,1.3-1.7V600C-893.5,599.5-893.8,599.1-894.4,598.7z"/>
<path class="st19" d="M-880.6,612.2L-880.6,612.2c-1.9,0-3.4-1.2-3.4-2.6v-11.8c0-1.5,1.5-2.6,3.4-2.6l0,0c1.9,0,3.4,1.2,3.4,2.6
	v11.8C-877.2,611-878.7,612.2-880.6,612.2z"/>
<path class="st19" d="M-867.4,606.9v2.7c0,0.8-0.9,1.5-2,1.5h-2.5c-1.1,0-2-0.7-2-1.5v-12.9c0-0.8,0.9-1.5,2-1.5h8.2
	c3.6,0,5.9,0.5,7,1.5c0.5,0.5,0.8,1.3,0.8,2.1v2.6c0,1.7-1,2.9-3,3.5c-1.1,0.3-3,0.5-5.6,0.5h-1.1
	C-866.5,605.4-867.4,606.1-867.4,606.9z M-862.5,598.7l-1.6-1.1c-1.3-0.9-3.2-0.2-3.2,1.1v3.1c0,0.8,0.9,1.5,2,1.5l0,0
	c1.2,0,2-0.1,2.4-0.2c0.8-0.3,1.2-0.8,1.2-1.6v-1.6C-861.7,599.4-862,599-862.5,598.7z"/>
<path class="st19" d="M-834.8,608.3c0,0.8-0.3,1.3-0.9,1.8c-1.2,0.8-3.9,1.3-8,1.3c-2.2,0-4-0.1-5.4-0.3c-1.3-0.2-2.3-0.5-2.9-0.9
	c-0.6-0.4-0.9-1-0.9-1.8v-10.2c0-1.1,0.7-1.9,2-2.3c1.5-0.5,3.8-0.7,7.1-0.7c3.3,0,5.7,0.2,7.1,0.7c1.3,0.4,2,1.2,2,2.3v10.1H-834.8
	z M-842.2,597.8L-842.2,597.8c-1.7-1-4.2-0.1-4.2,1.6v9.3c0,0.4,0.2,0.7,0.7,0.9c0.5,0.2,1.1,0.3,1.8,0.3c0.7,0,1.2-0.1,1.7-0.3
	c0.5-0.2,0.8-0.5,0.8-0.9v-9.6c0-0.3,0-0.6-0.1-0.7C-841.7,598.2-841.9,598-842.2,597.8z"/>
<path class="st19" d="M-814,607c0,1.2-0.3,2.1-0.9,2.7c-0.6,0.6-1.4,1-2.6,1.2c-1.3,0.2-3.2,0.4-5.7,0.4c-4.4,0-7.1-0.5-7.9-1.5
	c-0.3-0.4-0.5-0.8-0.6-1.2c0-0.2,0-0.6,0-1.3l0,0c0-0.7,0.7-1.2,1.6-1.2c1.1,0,2.3,0,3.4,0c-0.1,0.4-0.1,1.1,0.5,1.7
	c1.1,1.1,3.9,1,5.1-0.1c0.6-0.5,0.7-1.2,0.8-1.6c0-0.5-0.1-0.9-0.4-1.1c-0.4-0.3-1.4-0.6-3.2-0.8c-2.5-0.3-4-0.5-4.6-0.6
	c-1.6-0.4-2.6-1-2.9-1.8c-0.2-0.4-0.3-1.3-0.3-2.8c0-1.2,0.2-2.1,0.7-2.6s1.3-0.9,2.5-1c1.3-0.2,3.1-0.3,5.3-0.3
	c4.2,0,6.8,0.4,7.8,1.2c0.4,0.4,0.7,0.8,0.8,1.3c0,0.2,0,0.6,0,1.5v1.2c-1.8,0-3.7,0-5.5,0c0.1-0.3,0.3-0.7,0.2-1.3
	c0-0.3,0-0.7-0.2-1.1c-0.6-1-3.2-1.6-4.6-0.8c-0.2,0.1-0.7,0.4-0.9,1.1v0.5c0,0.9,0,1.3,0,1.3c0.1,0.5,0.3,0.9,0.7,1.1
	c0.4,0.2,1.2,0.4,2.5,0.6c2.1,0.3,3.3,0.4,3.7,0.5c1.7,0.3,2.9,0.6,3.5,1c0.5,0.3,0.8,0.7,1,1.2C-814,605-814,605.8-814,607z"/>
<path class="st19" d="M-795.7,597.5c-1,0-2,0-3,0c-0.1,0-1,0.2-1.5,0.9c-0.4,0.7,0,1.4,0.1,1.5c0.2,0.1,0.5,0.4,0.7,0.9
	c0.1,0.2,0.1,0.4,0.1,0.6c0,2.8-0.1,5.6-0.1,8.4c0,0.8-0.8,1.4-1.8,1.4h-2.7c-1,0-1.8-0.6-1.8-1.4v-10.9c0-0.8-0.8-1.4-1.8-1.4h-1.9
	c-0.7-0.1-1.2-0.6-1.2-1.1s0.5-1,1.2-1.1h13.9c0.8,0,1.4,0.5,1.4,1.1C-794.3,597-794.9,597.5-795.7,597.5z"/>
<g>
	<g>
		
			<linearGradient id="SVGID_15_" gradientUnits="userSpaceOnUse" x1="-97.8203" y1="407.0246" x2="-93.8673" y2="407.0246" gradientTransform="matrix(1 0 0 -1 0 562)">
			<stop  offset="0" style="stop-color:#FF512F"/>
			<stop  offset="1" style="stop-color:#F09819"/>
		</linearGradient>
		<path class="st20" d="M-97.4,158.2L-97.4,158.2c-0.5-0.2-0.6-0.7-0.4-1l2.4-5c0.2-0.4,0.6-0.5,0.9-0.4h0.1
			c0.4,0.2,0.5,0.6,0.4,0.9l-2.4,5C-96.5,158.2-97,158.3-97.4,158.2z"/>
		
			<linearGradient id="SVGID_16_" gradientUnits="userSpaceOnUse" x1="-103.2434" y1="406.7731" x2="-97.3977" y2="406.7731" gradientTransform="matrix(1 0 0 -1 0 562)">
			<stop  offset="0" style="stop-color:#FF512F"/>
			<stop  offset="1" style="stop-color:#F09819"/>
		</linearGradient>
		<path class="st21" d="M-102.7,160.4L-102.7,160.4c-0.5-0.2-0.6-0.7-0.4-1l4.4-8.9c0.2-0.4,0.6-0.5,0.9-0.4h0.1
			c0.4,0.2,0.5,0.6,0.4,0.9l-4.4,8.9C-102,160.4-102.4,160.5-102.7,160.4z"/>
		
			<linearGradient id="SVGID_17_" gradientUnits="userSpaceOnUse" x1="-105.6244" y1="409.5794" x2="-100.8351" y2="409.5794" gradientTransform="matrix(1 0 0 -1 0 562)">
			<stop  offset="0" style="stop-color:#FF512F"/>
			<stop  offset="1" style="stop-color:#F09819"/>
		</linearGradient>
		<path class="st22" d="M-105.2,156.5L-105.2,156.5c-0.5-0.2-0.6-0.7-0.4-1l3.3-6.8c0.2-0.4,0.6-0.5,0.9-0.4h0.1
			c0.4,0.2,0.5,0.6,0.4,0.9l-3.3,6.8C-104.3,156.6-104.8,156.7-105.2,156.5z"/>
	</g>
	
		<linearGradient id="SVGID_18_" gradientUnits="userSpaceOnUse" x1="-111.8795" y1="420.2258" x2="-82.8929" y2="420.2258" gradientTransform="matrix(1 0 0 -1 0 562)">
		<stop  offset="0" style="stop-color:#FF512F"/>
		<stop  offset="1" style="stop-color:#F09819"/>
	</linearGradient>
	<path class="st23" d="M-88.5,126.5c-7.4,5-14.9,9.9-22.3,15c-1.5,1-1.4,3.3,0.3,4.1c0.9,0.5,1.9,0.9,2.8,1.3
		c0.7,0.4,1.6,0.3,2.3-0.1c0.9-0.6,1.8-1.1,2.7-1.8c0.7-0.5,1.5-0.5,2.3-0.1c2.9,1.4,5.8,2.8,8.6,4.2c0.7,0.4,1.2,1,1.3,1.9
		c0.1,1,0.2,2.1,0.3,3.2c0.1,0.8,0.6,1.5,1.3,1.9l2.7,1.3c1.7,0.8,3.5-0.5,3.3-2.3c-0.7-8.9-1.3-17.8-2-26.8
		C-85,126.5-87,125.5-88.5,126.5z M-92,138.9c-1.7-0.6-2.3-2.4-1.4-3.9c0.7-0.9,2-1.4,3.1-1c1.7,0.6,2.3,2.4,1.4,3.9
		C-89.6,138.8-90.9,139.2-92,138.9z"/>
</g>
<path class="st11" d="M-43.7,156.1l-1.8-1c-0.6-0.4-1-1.1-1-1.8v-4c0-0.6-0.5-1.1-1.1-1.1H-55c-0.5,0-0.9,0.4-0.9,0.9v0.1
	c0,1.6-1.1,3-2.7,3.3c-1,0.2-1.9-0.6-1.9-1.6l0-7.4c0-1.8,0.7-3.5,2-4.7h0c1-0.9,2.2-1.5,3.6-1.5h7c1.5,0,3,0.6,4.1,1.7h0
	c1.1,1.1,1.8,2.6,1.8,4.2v12C-42,155.9-43,156.5-43.7,156.1z M-45.8,142.9L-45.8,142.9c0-1.1-1-2-2.3-2h-5.7c-1.2,0-2.3,0.9-2.3,2
	l0,0c0,1.1,1,2,2.3,2h5.7C-46.9,144.8-45.8,144-45.8,142.9z"/>
<path class="st11" d="M7.8,145.4L7.8,145.4c-1,1.4-2.7,2.2-4.4,2.2h-7c-0.5,0-0.9,0.4-0.9,0.9v5.2c0,0.7-0.8,1.2-1.4,0.8l-2-1.1
	c-0.8-0.4-1.2-1.2-1.2-2.1V141c0-1.9,1.6-3.5,3.5-3.5H4.9c1.1,0,2.2,0.5,2.9,1.5h0C9.2,140.9,9.2,143.5,7.8,145.4z M4.7,141.6
	L4.7,141.6c-0.3-0.4-0.8-0.6-1.3-0.6h-6.3c-0.9,0-1.7,0.8-1.7,1.7v0.1c0,0.8,0.7,1.5,1.5,1.5h6.5c0.5,0,1-0.2,1.3-0.7l0-0.1
	C5.2,142.9,5.2,142.1,4.7,141.6z"/>
<path class="st11" d="M-21.2,145.4L-21.2,145.4c-1,1.4-2.7,2.2-4.4,2.2h-7c-0.5,0-0.9,0.4-0.9,0.9v5.2c0,0.7-0.8,1.2-1.4,0.8l-2-1.1
	c-0.8-0.4-1.2-1.2-1.2-2.1V141c0-1.9,1.6-3.5,3.5-3.5h10.5c1.1,0,2.2,0.5,2.9,1.5h0C-19.8,140.9-19.8,143.5-21.2,145.4z
	 M-24.2,141.6L-24.2,141.6c-0.3-0.4-0.8-0.6-1.3-0.6h-6.3c-0.9,0-1.7,0.8-1.7,1.7v0.1c0,0.8,0.7,1.5,1.5,1.5h6.5
	c0.5,0,1-0.2,1.3-0.7l0-0.1C-23.8,142.9-23.8,142.1-24.2,141.6z"/>
<linearGradient id="SVGID_19_" gradientUnits="userSpaceOnUse" x1="-17.3325" y1="144.3227" x2="-12.7505" y2="144.3227">
	<stop  offset="0" style="stop-color:#D84D28"/>
	<stop  offset="1" style="stop-color:#E5762C"/>
</linearGradient>
<path class="st24" d="M-15.1,152.4L-15.1,152.4c-1.3,0-2.3-1-2.3-2.3v-11.5c0-0.8,0.4-1.6,1.1-2h0c1.5-0.9,3.4,0.2,3.4,2v11.5
	C-12.8,151.4-13.8,152.4-15.1,152.4z"/>
<path class="st11" d="M28.7,151.2L28.7,151.2c-0.8,0.8-1.9,1.2-3,1.2h-9.2c-1.1,0-2.2-0.4-3-1.2l-0.1-0.1c-1.4-1.4-2.2-3.3-2.2-5.2
	v-3.5c0-1.1,0.4-2.2,1.2-3l0,0c1.4-1.4,3.4-2.2,5.4-2.2h6.6c1.9,0,3.7,0.7,5,2.1l0.2,0.2c0.8,0.8,1.2,1.9,1.2,3v3.4
	C30.9,147.8,30.1,149.7,28.7,151.2z M26.3,144.8L26.3,144.8c0-2.3-1.9-4.2-4.2-4.2h-2c-2.3,0-4.2,1.9-4.2,4.2v0
	c0,2.3,1.9,4.2,4.2,4.2h2C24.5,149,26.3,147.1,26.3,144.8z"/>
<path class="st11" d="M52.6,150.3l-0.2,0.3c-0.9,1.2-2.2,1.9-3.7,1.9H36.5c-1.1,0-1.7-1.4-0.9-2.2h0c0.8-0.8,1.8-1.2,2.9-1.2h9.3
	c0.4,0,0.7-0.2,1-0.4h0c0.4-0.5,0.4-1.2,0-1.6l0-0.1c-0.2-0.3-0.6-0.5-1-0.5h-8.3c-1.7,0-3.2-0.8-4.2-2.1l0,0c-1-1.4-1-3.3,0-4.7
	l0.4-0.5c0.8-1.1,2.1-1.8,3.5-1.8h12.3c1.1,0,1.7,1.4,0.9,2.2l0,0c-0.8,0.8-1.8,1.2-2.9,1.2h-9.2c-0.4,0-0.7,0.2-1,0.5l0,0
	c-0.4,0.5-0.4,1.2,0,1.6l0.1,0.1c0.2,0.3,0.6,0.5,1,0.5h8.8c1.4,0,2.6,0.6,3.5,1.7l0.2,0.2C53.7,146.7,53.7,148.8,52.6,150.3z"/>
<path class="st11" d="M71.3,139.3l-0.7,0.7c-0.4,0.4-0.8,0.6-1.4,0.6h-1.7c-1.1,0-2,0.9-2,2v10.3c0,0.9-1,1.5-1.8,1.1l-0.4-0.2
	c-1.4-0.8-2.3-2.4-2.3-4v-7.5c0-0.9-0.7-1.7-1.7-1.7h-2c-0.5,0-1-0.2-1.4-0.6h0c-1-1-0.3-2.8,1.2-2.8h13.4
	C71.5,137.2,72.1,138.5,71.3,139.3z"/>
<g>
	<g>
		
			<linearGradient id="SVGID_20_" gradientUnits="userSpaceOnUse" x1="-371.7635" y1="269.765" x2="-367.8105" y2="269.765" gradientTransform="matrix(1 0 0 -1 0 562)">
			<stop  offset="0" style="stop-color:#F83600"/>
			<stop  offset="1" style="stop-color:#FE8C00"/>
		</linearGradient>
		<path class="st25" d="M-371.3,295.4L-371.3,295.4c-0.5-0.2-0.6-0.7-0.4-1l2.4-5c0.2-0.4,0.6-0.5,0.9-0.4h0.1
			c0.4,0.2,0.5,0.6,0.4,0.9l-2.4,5C-370.5,295.5-370.9,295.6-371.3,295.4z"/>
		
			<linearGradient id="SVGID_21_" gradientUnits="userSpaceOnUse" x1="-377.1866" y1="269.5135" x2="-371.3409" y2="269.5135" gradientTransform="matrix(1 0 0 -1 0 562)">
			<stop  offset="0" style="stop-color:#F83600"/>
			<stop  offset="1" style="stop-color:#FE8C00"/>
		</linearGradient>
		<path class="st26" d="M-376.7,297.6L-376.7,297.6c-0.5-0.2-0.6-0.7-0.4-1l4.4-8.9c0.2-0.4,0.6-0.5,0.9-0.4h0.1
			c0.4,0.2,0.5,0.6,0.4,0.9l-4.4,8.9C-375.9,297.6-376.3,297.7-376.7,297.6z"/>
		
			<linearGradient id="SVGID_22_" gradientUnits="userSpaceOnUse" x1="-379.5676" y1="272.3199" x2="-374.7783" y2="272.3199" gradientTransform="matrix(1 0 0 -1 0 562)">
			<stop  offset="0" style="stop-color:#F83600"/>
			<stop  offset="1" style="stop-color:#FE8C00"/>
		</linearGradient>
		<path class="st27" d="M-379.1,293.7L-379.1,293.7c-0.5-0.2-0.6-0.7-0.4-1l3.3-6.8c0.2-0.4,0.6-0.5,0.9-0.4h0.1
			c0.4,0.2,0.5,0.6,0.4,0.9l-3.3,6.8C-378.3,293.8-378.7,293.9-379.1,293.7z"/>
	</g>
	
		<linearGradient id="SVGID_23_" gradientUnits="userSpaceOnUse" x1="-385.8228" y1="282.9662" x2="-356.8362" y2="282.9662" gradientTransform="matrix(1 0 0 -1 0 562)">
		<stop  offset="0" style="stop-color:#F83600"/>
		<stop  offset="1" style="stop-color:#FE8C00"/>
	</linearGradient>
	<path class="st28" d="M-362.5,263.7c-7.4,5-14.9,9.9-22.3,15c-1.5,1-1.4,3.3,0.3,4.1c0.9,0.5,1.9,0.9,2.8,1.3
		c0.7,0.4,1.6,0.3,2.3-0.1c0.9-0.6,1.8-1.1,2.7-1.8c0.7-0.5,1.5-0.5,2.3-0.1c2.9,1.4,5.8,2.8,8.6,4.2c0.7,0.4,1.2,1,1.3,1.9
		c0.1,1,0.2,2.1,0.3,3.2c0.1,0.8,0.6,1.5,1.3,1.9l2.7,1.3c1.7,0.8,3.5-0.5,3.3-2.3c-0.7-8.9-1.3-17.8-2-26.8
		C-358.9,263.7-361,262.7-362.5,263.7z M-365.9,276.2c-1.7-0.6-2.3-2.4-1.4-3.9c0.7-0.9,2-1.4,3.1-1c1.7,0.6,2.3,2.4,1.4,3.9
		C-363.5,276.1-364.8,276.5-365.9,276.2z"/>
</g>
<path class="st11" d="M-325.2,292.2l-1.8-1c-0.6-0.4-1-1.1-1-1.8v-4c0-0.6-0.5-1.1-1.1-1.1h-7.2c-0.5,0-0.9,0.4-0.9,0.9v0.1
	c0,1.6-1.1,3-2.7,3.3c-1,0.2-1.9-0.6-1.9-1.6v-7.4c0-1.8,0.7-3.5,2-4.7h0c1-0.9,2.2-1.5,3.6-1.5h7c1.5,0,3,0.6,4.1,1.7v0
	c1.1,1.1,1.8,2.6,1.8,4.2v12C-323.5,292.1-324.4,292.6-325.2,292.2z M-327.3,279.1L-327.3,279.1c0-1.1-1-2-2.3-2h-5.7
	c-1.2,0-2.3,0.9-2.3,2l0,0c0,1.1,1,2,2.3,2h5.7C-328.3,281-327.3,280.1-327.3,279.1z"/>
<path class="st11" d="M-273.7,281.6L-273.7,281.6c-1,1.4-2.7,2.2-4.4,2.2h-7c-0.5,0-0.9,0.4-0.9,0.9v5.2c0,0.7-0.8,1.2-1.4,0.8
	l-2-1.1c-0.8-0.4-1.2-1.2-1.2-2.1v-10.3c0-1.9,1.6-3.5,3.5-3.5h10.5c1.1,0,2.2,0.5,2.9,1.5l0,0
	C-272.2,277.1-272.2,279.7-273.7,281.6z M-276.7,277.7L-276.7,277.7c-0.3-0.4-0.8-0.6-1.3-0.6h-6.3c-0.9,0-1.7,0.8-1.7,1.7v0.1
	c0,0.8,0.7,1.5,1.5,1.5h6.5c0.5,0,1-0.2,1.3-0.7l0-0.1C-276.3,279.1-276.3,278.3-276.7,277.7z"/>
<path class="st11" d="M-302.6,281.6L-302.6,281.6c-1,1.4-2.7,2.2-4.4,2.2h-7c-0.5,0-0.9,0.4-0.9,0.9v5.2c0,0.7-0.8,1.2-1.4,0.8
	l-2-1.1c-0.8-0.4-1.2-1.2-1.2-2.1v-10.3c0-1.9,1.6-3.5,3.5-3.5h10.5c1.1,0,2.2,0.5,2.9,1.5l0,0
	C-301.2,277.1-301.2,279.7-302.6,281.6z M-305.7,277.7L-305.7,277.7c-0.3-0.4-0.8-0.6-1.3-0.6h-6.3c-0.9,0-1.7,0.8-1.7,1.7v0.1
	c0,0.8,0.7,1.5,1.5,1.5h6.5c0.5,0,1-0.2,1.3-0.7l0-0.1C-305.3,279.1-305.3,278.3-305.7,277.7z"/>
<linearGradient id="SVGID_24_" gradientUnits="userSpaceOnUse" x1="-298.7758" y1="280.4823" x2="-294.1937" y2="280.4823">
	<stop  offset="0" style="stop-color:#D84D28"/>
	<stop  offset="1" style="stop-color:#E5762C"/>
</linearGradient>
<path class="st29" d="M-296.5,288.5L-296.5,288.5c-1.3,0-2.3-1-2.3-2.3v-11.5c0-0.8,0.4-1.6,1.1-2l0,0c1.5-0.9,3.4,0.2,3.4,2v11.5
	C-294.2,287.5-295.2,288.6-296.5,288.5z"/>
<path class="st11" d="M-252.7,287.3L-252.7,287.3c-0.8,0.8-1.9,1.2-3,1.2h-9.2c-1.1,0-2.2-0.4-3-1.2l-0.1-0.1
	c-1.4-1.4-2.2-3.3-2.2-5.2v-3.5c0-1.1,0.4-2.2,1.2-3l0,0c1.4-1.4,3.4-2.2,5.4-2.2h6.6c1.9,0,3.7,0.7,5,2.1l0.2,0.2
	c0.8,0.8,1.2,1.9,1.2,3v3.4C-250.5,284-251.3,285.9-252.7,287.3z M-255.1,281L-255.1,281c0-2.3-1.9-4.2-4.2-4.2h-2
	c-2.3,0-4.2,1.9-4.2,4.2l0,0c0,2.3,1.9,4.2,4.2,4.2h2C-257,285.2-255.1,283.3-255.1,281z"/>
<path class="st11" d="M-228.9,286.4l-0.2,0.3c-0.9,1.2-2.2,1.9-3.7,1.9H-245c-1.1,0-1.7-1.4-0.9-2.2h0c0.8-0.8,1.8-1.2,2.9-1.2h9.3
	c0.4,0,0.7-0.2,1-0.4l0,0c0.4-0.5,0.4-1.2,0-1.6l0-0.1c-0.2-0.3-0.6-0.5-1-0.5h-8.3c-1.7,0-3.2-0.8-4.2-2.1l0,0c-1-1.4-1-3.3,0-4.7
	l0.4-0.5c0.8-1.1,2.1-1.8,3.5-1.8h12.3c1.1,0,1.7,1.4,0.9,2.2l0,0c-0.8,0.8-1.8,1.2-2.9,1.2h-9.2c-0.4,0-0.7,0.2-1,0.5l0,0
	c-0.4,0.5-0.4,1.2,0,1.6l0.1,0.1c0.2,0.3,0.6,0.5,1,0.5h8.8c1.4,0,2.6,0.6,3.5,1.7l0.2,0.2C-227.8,282.9-227.8,284.9-228.9,286.4z"
	/>
<path class="st11" d="M-210.2,275.5l-0.7,0.7c-0.4,0.4-0.8,0.6-1.4,0.6h-1.7c-1.1,0-2,0.9-2,2v10.3c0,0.9-1,1.5-1.8,1.1l-0.4-0.2
	c-1.4-0.8-2.3-2.4-2.3-4v-7.5c0-0.9-0.7-1.7-1.7-1.7h-2c-0.5,0-1-0.2-1.4-0.6v0c-1-1-0.3-2.8,1.2-2.8h13.4
	C-209.9,273.4-209.4,274.7-210.2,275.5z"/>
<text transform="matrix(1 0 0 1 245.6159 186.3197)" style="font-family:'BatmanForeverAlternate'; font-size:23.4723px;">apipost</text>
<g>
	<g>
		
			<linearGradient id="SVGID_25_" gradientUnits="userSpaceOnUse" x1="-578.9064" y1="582.156" x2="-566.8848" y2="582.156" gradientTransform="matrix(1 0 0 -1 0 562)">
			<stop  offset="0" style="stop-color:#E24B28"/>
			<stop  offset="1" style="stop-color:#ED7C2C"/>
		</linearGradient>
		<path class="st30" d="M-577.5-10.5L-577.5-10.5c-1.4-0.6-1.7-2-1.1-3.1l7.3-15.3c0.6-1.1,1.7-1.4,2.8-1.1h0.3
			c1.1,0.6,1.4,1.7,1.1,2.8l-7.3,15.3C-575-10.2-576.4-9.9-577.5-10.5z"/>
		
			<linearGradient id="SVGID_26_" gradientUnits="userSpaceOnUse" x1="-595.3987" y1="581.3914" x2="-577.6212" y2="581.3914" gradientTransform="matrix(1 0 0 -1 0 562)">
			<stop  offset="0" style="stop-color:#E24B28"/>
			<stop  offset="1" style="stop-color:#ED7C2C"/>
		</linearGradient>
		<path class="st31" d="M-593.9-3.7L-593.9-3.7c-1.4-0.6-1.7-2-1.1-3.1l13.3-27.1c0.6-1.1,1.7-1.4,2.8-1.1h0.3
			c1.1,0.6,1.4,1.7,1.1,2.8l-13.3,27.1C-591.6-3.7-592.8-3.4-593.9-3.7z"/>
		
			<linearGradient id="SVGID_27_" gradientUnits="userSpaceOnUse" x1="-602.6395" y1="589.9257" x2="-588.0748" y2="589.9257" gradientTransform="matrix(1 0 0 -1 0 562)">
			<stop  offset="0" style="stop-color:#E24B28"/>
			<stop  offset="1" style="stop-color:#ED7C2C"/>
		</linearGradient>
		<path class="st32" d="M-601.2-15.6L-601.2-15.6c-1.4-0.6-1.7-2-1.1-3.1l9.9-20.6c0.6-1.1,1.7-1.4,2.8-1.1h0.3
			c1.1,0.6,1.4,1.7,1.1,2.8l-9.9,20.6C-598.7-15.3-600.1-15-601.2-15.6z"/>
	</g>
	
		<linearGradient id="SVGID_28_" gradientUnits="userSpaceOnUse" x1="-621.6623" y1="622.3026" x2="-533.5105" y2="622.3026" gradientTransform="matrix(1 0 0 -1 0 562)">
		<stop  offset="0" style="stop-color:#E24B28"/>
		<stop  offset="1" style="stop-color:#ED7C2C"/>
	</linearGradient>
	<path class="st33" d="M-550.7-106.8c-22.6,15.3-45.2,30.2-67.8,45.5c-4.5,3.1-4.2,9.9,0.8,12.4c2.8,1.4,5.7,2.8,8.5,4
		c2.3,1.1,4.8,0.8,7.1-0.3c2.8-1.7,5.4-3.4,8.2-5.4c2-1.4,4.5-1.4,7.1-0.3c8.8,4.2,17.5,8.5,26.3,12.7c2.3,1.1,3.7,3.1,4,5.7
		c0.3,3.1,0.6,6.5,0.8,9.6c0.3,2.5,1.7,4.5,4,5.7l8.2,4c5.1,2.5,10.7-1.4,10.2-7.1c-2-27.1-4-54.2-5.9-81.4
		C-539.9-106.8-546.1-109.9-550.7-106.8z M-561.1-69c-5.1-1.7-7.1-7.3-4.2-11.9c2-2.8,5.9-4.2,9.3-3.1c5.1,1.7,7.1,7.3,4.2,11.9
		C-553.8-69.3-557.7-68.1-561.1-69z"/>
</g>
<path class="st34" d="M-414.4-16.9L-420-20c-2-1.1-3.2-3.2-3.2-5.5v-12.3c0-1.9-1.6-3.5-3.5-3.5h-22c-1.4,0-2.6,1.2-2.6,2.6v0.4
	c0,4.9-3.5,9-8.1,9.9c-3,0.6-5.8-1.7-5.8-4.8l0-22.4c0-5.4,2.2-10.5,6-14.3v0c2.9-2.8,6.8-4.4,10.8-4.4h21.4c4.6,0,9.1,1.8,12.4,5.1
	l0,0c3.4,3.4,5.3,8,5.3,12.7v36.5C-409.2-17.2-412.1-15.6-414.4-16.9z M-420.8-56.9L-420.8-56.9c0-3.3-3.1-5.9-6.9-5.9H-445
	c-3.8,0-6.9,2.7-6.9,5.9v0c0,3.3,3.1,5.9,6.9,5.9h17.3C-423.9-51-420.8-53.6-420.8-56.9z"/>
<path class="st35" d="M-257.7-49.1L-257.7-49.1c-3.1,4.2-8.1,6.8-13.4,6.8h-21.4c-1.6,0-2.8,1.3-2.8,2.8v15.7c0,2.2-2.3,3.5-4.2,2.4
	l-6-3.4c-2.3-1.3-3.7-3.8-3.7-6.4v-31.3c0-5.9,4.7-10.6,10.6-10.6h32.1c3.5,0,6.8,1.7,8.8,4.5l0,0C-253.4-62.9-253.4-55-257.7-49.1z
	 M-267-60.9L-267-60.9c-0.9-1.2-2.4-1.9-3.9-1.9h-19.2c-2.9,0-5.2,2.3-5.2,5.2v0.2c0,2.5,2.1,4.6,4.6,4.6h19.7c1.6,0,3-0.8,4-2
	l0.1-0.2C-265.7-56.8-265.7-59.2-267-60.9z"/>
<path class="st4" d="M-345.9-49.1L-345.9-49.1c-3.1,4.2-8.1,6.8-13.4,6.8h-21.4c-1.6,0-2.8,1.3-2.8,2.8v15.7c0,2.2-2.3,3.5-4.2,2.4
	l-6-3.4c-2.3-1.3-3.7-3.8-3.7-6.4v-31.3c0-5.9,4.7-10.6,10.6-10.6h32.1c3.5,0,6.8,1.7,8.8,4.5v0C-341.6-62.9-341.6-55-345.9-49.1z
	 M-355.2-60.9L-355.2-60.9c-0.9-1.2-2.4-1.9-3.9-1.9h-19.2c-2.9,0-5.2,2.3-5.2,5.2v0.2c0,2.5,2.1,4.6,4.6,4.6h19.7c1.6,0,3-0.8,4-2
	l0.1-0.2C-353.8-56.8-353.9-59.2-355.2-60.9z"/>
<path class="st4" d="M-327.2-28L-327.2-28c-3.8,0-6.9-3.1-6.9-7v-35.1c0-2.5,1.3-4.8,3.5-6l0,0c4.6-2.7,10.5,0.7,10.5,6V-35
	C-320.2-31.1-323.3-28-327.2-28z"/>
<path class="st4" d="M-194.1-31.7L-194.1-31.7c-2.4,2.4-5.6,3.7-9,3.7H-231c-3.4,0-6.6-1.3-9-3.7l-0.2-0.2
	c-4.2-4.2-6.6-9.9-6.6-15.9v-10.6c0-3.4,1.3-6.6,3.7-9l0,0c4.3-4.3,10.2-6.8,16.3-6.8h20c5.7,0,11.2,2.3,15.2,6.3l0.5,0.5
	c2.4,2.4,3.7,5.6,3.7,9v10.3C-187.4-41.9-189.8-36.1-194.1-31.7z M-201.3-51.1L-201.3-51.1c0-7-5.7-12.8-12.8-12.8h-6
	c-7,0-12.8,5.7-12.8,12.8v0c0,7,5.7,12.8,12.8,12.8h6C-207-38.3-201.3-44-201.3-51.1z"/>
<path class="st4" d="M-121.6-34.5l-0.6,0.9c-2.6,3.6-6.8,5.7-11.2,5.7h-37.1c-3.5,0-5.2-4.2-2.8-6.7l0,0c2.3-2.3,5.5-3.7,8.8-3.7
	h28.2c1.1,0,2.2-0.5,3-1.4v0c1.2-1.4,1.3-3.5,0.1-5l-0.1-0.2c-0.7-0.9-1.9-1.5-3.1-1.5h-25.2c-5.1,0-9.9-2.4-12.9-6.5l0,0
	c-3.2-4.3-3.2-10.1,0-14.4l1.2-1.7c2.5-3.4,6.4-5.3,10.6-5.3h37.5c3.5,0,5.2,4.2,2.8,6.7l0,0c-2.3,2.3-5.5,3.7-8.8,3.7h-28.1
	c-1.1,0-2.2,0.5-3,1.4l-0.1,0.1c-1.2,1.4-1.2,3.5-0.1,5l0.2,0.2c0.7,0.9,1.9,1.5,3,1.5h26.8c4.1,0,8,1.9,10.5,5.2l0.5,0.7
	C-118.2-45.3-118.2-39.1-121.6-34.5z"/>
<path class="st4" d="M-64.7-67.7l-2.1,2.2c-1.1,1.1-2.6,1.7-4.1,1.7h-5.3c-3.3,0-6,2.7-6,6v31.4c0,2.9-3.1,4.7-5.6,3.2l-1.3-0.7
	c-4.4-2.5-7.1-7.2-7.1-12.2v-22.7c0-2.8-2.3-5.1-5.1-5.1h-6.2c-1.6,0-3-0.6-4.1-1.7l0,0c-3.2-3.2-0.9-8.6,3.6-8.6h40.6
	C-64-74.2-62.3-70.1-64.7-67.7z"/>
</svg>
