<svg t="1652343102714" class="icon" viewBox="0 0 1024 1024" version="1.1" xmlns="http://www.w3.org/2000/svg" p-id="1178"
     width="200" height="200">
    <path d="M512 512m-512 0a512 512 0 1 0 1024 0 512 512 0 1 0-1024 0Z" fill="#5354EE" p-id="1179"
          data-spm-anchor-id="a313x.7781069.0.i0" class="selected"></path>
    <path d="M390.4 289.28l84.48 84.48c7.68 7.68 20.48 11.52 30.72 8.96l117.76-21.76c28.16-5.12 51.2 24.32 38.4 49.92l-53.76 106.24c-5.12 10.24-5.12 23.04 0 33.28l57.6 104.96c14.08 25.6-7.68 56.32-35.84 51.2L512 687.36c-11.52-1.28-23.04 2.56-30.72 10.24l-81.92 87.04c-20.48 21.76-55.04 10.24-60.16-17.92L320 648.96c-1.28-11.52-8.96-21.76-19.2-25.6l-107.52-51.2c-26.88-12.8-26.88-49.92-1.28-62.72l106.24-55.04c10.24-5.12 16.64-15.36 19.2-26.88l15.36-117.76c2.56-29.44 37.12-40.96 57.6-20.48z"
          fill="#FFFFFF" opacity=".5" p-id="1180"></path>
    <path d="M599.04 249.6l58.88 119.04c5.12 11.52 16.64 19.2 29.44 21.76L817.92 409.6c32 5.12 44.8 43.52 21.76 66.56l-94.72 92.16c-8.96 8.96-12.8 21.76-11.52 34.56L755.2 733.44c5.12 32-28.16 56.32-56.32 40.96l-117.76-61.44c-11.52-6.4-24.32-6.4-35.84 0l-117.76 61.44c-28.16 15.36-61.44-8.96-56.32-40.96l21.76-130.56c2.56-12.8-2.56-25.6-11.52-34.56l-94.72-92.16c-23.04-23.04-10.24-61.44 21.76-66.56l130.56-19.2c12.8-1.28 23.04-10.24 29.44-21.76l58.88-119.04c16.64-28.16 57.6-28.16 71.68 0z"
          fill="#FFFFFF" p-id="1181"></path>
</svg>