<svg viewBox="0 0 1024 1024" version="1.1" xmlns="http://www.w3.org/2000/svg"
     xmlns:xlink="http://www.w3.org/1999/xlink" width="200" height="200">
    <path d="M896.862 625.791l-29.6-30.34a74.005 74.005 0 0 1-22.2-57.36c1.87-20.43 1.87-40.99 0-61.43a71.826 71.826 0 0 1 21.46-56.62l29.97-30.72c23.21-23.76 27.75-60.07 11.1-88.81l-18.13-31.45c-16.49-28.5-49.82-42.67-81.78-34.79l-44.78 11.1a74.003 74.003 0 0 1-60.32-11.47 263.402 263.402 0 0 0-24.05-15.17c-8.39-4.69-16.41-8.76-24.05-12.21a74.029 74.029 0 0 1-41.45-48.11l-11.1-39.97c-9.07-33.1-39.71-55.62-74.01-54.4h-37.01c-32.24 0.6-60.38 22.01-69.57 52.92l-13.69 45.89a74.054 74.054 0 0 1-37.01 45.15 336.03 336.03 0 0 0-52.18 30.72 74.007 74.007 0 0 1-59.58 11.47l-42.93-10.36c-32.48-7.49-65.97 7.66-81.78 37.01l-18.5 32.94c-16.36 28.73-11.68 64.83 11.47 88.44l29.6 30.34a74.005 74.005 0 0 1 22.2 57.36 335.248 335.248 0 0 0 0 61.43 71.826 71.826 0 0 1-21.46 56.62l-29.97 30.72c-23.21 23.76-27.75 60.07-11.1 88.81l18.13 31.45c16.49 28.49 49.82 42.67 81.78 34.79l44.78-11.1a74.003 74.003 0 0 1 60.32 11.47c7.74 5.49 15.77 10.55 24.05 15.17 8.39 4.69 16.41 8.76 24.05 12.21a74.029 74.029 0 0 1 41.45 48.11l11.1 39.97c9.07 33.1 39.71 55.62 74.01 54.4h37.01c32.24-0.6 60.38-22.01 69.57-52.92l13.69-45.89a74.054 74.054 0 0 1 37.01-45.15 336.03 336.03 0 0 0 52.18-30.72 74.007 74.007 0 0 1 59.58-11.47l42.93 10.36c32.48 7.49 65.97-7.66 81.78-37.01l18.5-32.94c16.36-28.73 11.68-64.83-11.47-88.44z m-384.12 34.05c-81.75 0-148.02-66.27-148.02-148.02 0-81.75 66.27-148.02 148.02-148.02 81.75 0 148.02 66.27 148.02 148.02 0 81.75-66.27 148.02-148.02 148.02z"
          fill="#FC284F"></path>
    <path d="M494.232 308.281c-122.63 0-222.03 99.41-222.03 222.03s99.41 222.03 222.03 222.03 222.03-99.41 222.03-222.03-99.4-222.03-222.03-222.03z m111.02 316.77c-38.54-0.51-69.37-32.17-68.86-70.71 0.51-38.54 32.17-69.37 70.71-68.86 38.54 0.51 69.37 32.17 68.86 70.71-0.5 37.82-31.04 68.36-68.86 68.86h-1.85z"
          fill="#A31C3C"></path>
    <path d="M512.742 733.851c-122.63 0-222.03-99.41-222.03-222.03s99.41-222.03 222.03-222.03 222.03 99.41 222.03 222.03-99.41 222.03-222.03 222.03z m0-370.06c-81.75 0-148.02 66.27-148.02 148.02 0 81.75 66.27 148.02 148.02 148.02 81.75 0 148.02-66.27 148.02-148.02 0-81.75-66.27-148.02-148.02-148.02z"
          fill="#FEA887"></path>
</svg>